<svg fill="none" height="13" viewBox="0 0 65 13" width="65" xmlns="http://www.w3.org/2000/svg" xmlns:xlink="http://www.w3.org/1999/xlink"><clipPath id="a"><path d="m.742188.5h64.2581v12h-64.2581z"/></clipPath><g clip-path="url(#a)" fill="#262525"><path d="m6.03078 6.37195c0-1.07853-.8112-1.83654-1.80764-1.83654-.99645 0-1.80766.77079-1.80766 1.83654 0 1.05298.81121 1.83658 1.80766 1.83658.99745-.001 1.80764-.75805 1.80764-1.83658zm.01425 3.21008v-.83474c-.49162.57813-1.22342.93697-2.09976.93697-1.82088 0-3.203082-1.41283-3.203082-3.31231 0-1.88768 1.435122-3.32507 3.243792-3.32507.85092 0 1.56848.35984 2.06005.92418v-.80916h1.63464v6.42013z"/><path d="m15.6216 8.15701c-.572 0-.7308-.20551-.7308-.74427v-2.85023h1.0504v-1.40002h-1.0504v-1.56619h-1.6753v1.56619h-2.1578v-.39032c0-.53976.2128-.74524.798-.74524h.3674v-1.24568h-.8061c-1.3822 0-2.0336.43653-2.0336 1.77167v.60859h-.93028v1.40003h.93028v5.02007h1.6754v-5.02007h2.1577v3.14613c0 1.30959.5181 1.87494 1.8738 1.87494h.8641v-1.4256z"/><path d="m21.6277 5.79485c-.1191-.83474-.8245-1.33518-1.6479-1.33518-.8244 0-1.5023.48767-1.6743 1.33518zm-3.3365 1.00184c.1202.94974.8245 1.48951 1.7151 1.48951.7043 0 1.2499-.32152 1.5684-.83473h1.715c-.3989 1.36072-1.662 2.23378-3.3231 2.23378-2.0072 0-3.4158-1.36072-3.4158-3.29954 0-1.93881 1.4891-3.33883 3.4565-3.33883 1.9807 0 3.4158 1.41283 3.4158 3.33883 0 .1416-.0132.2822-.0397.41098z"/><path d="m34.0767 6.37195c0-1.04021-.8112-1.83654-1.8077-1.83654-.9964 0-1.8077.77079-1.8077 1.83654 0 1.05298.8113 1.83658 1.8077 1.83658.9965-.001 1.8077-.79637 1.8077-1.83658zm-5.2642-3.21005h1.6346v.83472c.4916-.59089 1.2224-.94974 2.0998-.94974 1.7944 0 3.2031 1.42559 3.2031 3.3123 0 1.88767-1.4352 3.32605-3.2428 3.32605-.8377 0-1.5288-.32149-2.0072-.86025v3.39882h-1.6875z"/><path d="m41.6402 6.37195c0-1.07853-.8102-1.83654-1.8078-1.83654-.9964 0-1.8076.77079-1.8076 1.83654 0 1.05298.8112 1.83658 1.8076 1.83658.9976-.001 1.8078-.75805 1.8078-1.83658zm.0143 3.21008v-.83474c-.4916.57813-1.2236.93697-2.1.93697-1.8208 0-3.2029-1.41283-3.2029-3.31231 0-1.88768 1.4351-3.32507 3.2428-3.32507.8508 0 1.5685.35984 2.0601.92418v-.80916h1.6347v6.42013z"/><path d="m25.8651 3.79113s.4163-.74425 1.4351-.74425c.4356 0 .7176.14452.7176.14452v1.63797s-.6148-.36673-1.1797-.29299-.9221.57515-.9201 1.24567v3.80095h-1.6875v-6.42011h1.6346z"/><path d="m50.9246 3.16211-4.1272 9.04119h-1.7404l1.6204-3.49513-2.7399-5.54606h1.9726l1.603 3.70557 1.6448-3.70557z"/><path d="m64.1001 3.01662-4.0916-2.280953c-1.2012-.6695375-2.7024.167141-2.7024 1.507203v.23399c0 .21139.117.40704.3062.51223l.7727.43063c.2268.12684.5098-.03146.5098-.28413v-.58204c0-.29102.3259-.4729.5864-.32739l3.5439 1.97617c.2609.14551.2609.50928 0 .65382l-3.5439 1.97617c-.2605.14551-.5864-.03638-.5864-.3274v-.30972c0-1.34005-1.5012-2.17771-2.7031-1.5072l-4.0916 2.28097c-1.2012.66956-1.2012 2.34487 0 3.0144l4.0916 2.28093c1.2008.6696 2.7031-.1671 2.7031-1.5072v-.234c0-.2114-.1169-.406-.3062-.5122l-.7726-.43162c-.2269-.12682-.5099.03147-.5099.28417v.58205c0 .291-.3255.4729-.5864.3274l-3.5439-1.97622c-.2605-.14551-.2605-.50926 0-.65477l3.5439-1.97621c.2609-.14551.5864.03639.5864.32741v.30972c0 1.34005 1.5012 2.17772 2.7024 1.5072l4.0916-2.28097c1.2012-.66759 1.2012-2.3429 0-3.01244z"/></g></svg>