<svg enable-background="new 0 0 1869.6 390.7" viewBox="0 0 1869.6 390.7" xmlns="http://www.w3.org/2000/svg"><path d="m1814.3 90-54.3-31.2-55.1-31.6c-36.5-21-82 5.4-82 47.5v7.1c0 3.9 2.1 7.5 5.4 9.4l25.6 14.7c7.1 4.1 15.9-1.1 15.9-9.2v-16.8c0-8.3 9-13.5 16.2-9.4l50.4 28.9 50.2 28.8c7.3 4.2 7.3 14.6 0 18.8l-50.2 28.8-50.4 28.9c-7.2 4.1-16.2-1.1-16.2-9.4v-8.3c0-42.1-45.5-68.5-82-47.5l-55.1 31.6-54.3 31.2c-36.7 21.1-36.7 74 0 95l54.3 31.2 55.1 31.6c36.5 21 82-5.4 82-47.5v-7.1c0-3.9-2.1-7.5-5.4-9.4l-25.6-14.7c-7.1-4.1-15.9 1.1-15.9 9.2v16.8c0 8.3-9 13.5-16.2 9.4l-50.4-28.9-50.2-28.8c-7.3-4.2-7.3-14.6 0-18.8l50.2-28.8 50.4-28.9c7.2-4.1 16.2 1.1 16.2 9.4v8.3c0 42.1 45.5 68.5 82 47.5l55.1-31.6 54.3-31.2c36.7-21 36.7-73.9 0-95z"/><path d="m1457.6 100.4-127.4 263h-52.9l47.6-98.3-74.8-164.7h54.2l48.1 110.3 52.5-110.3z"/><path d="m184.7 193.8c0-31.4-22.8-53.4-50.8-53.4s-50.8 22.4-50.8 53.4c0 30.6 22.8 53.4 50.8 53.4s50.8-22 50.8-53.4m.3 93.4v-24.3c-13.8 16.8-34.4 27.3-59 27.3-51.2 0-90-41.1-90-96.4 0-54.9 40.3-96.7 91.1-96.7 23.9 0 44.1 10.5 57.9 26.9v-23.5h46v186.7z"/><path d="m454.1 245.7c-16.1 0-20.5-6-20.5-21.7v-82.9h29.5v-40.7h-29.5v-45.5h-47.1v45.6h-60.6v-18.7c0-15.7 6-21.7 22.4-21.7h10.3v-36.2h-22.6c-38.8 0-57.1 12.7-57.1 51.5v24.9h-26.1v40.7h26.1v146h47.1v-146h60.6v91.5c0 38.1 14.6 54.5 52.7 54.5h24.3v-41.5h-9.5z"/><path d="m622.9 177c-3.4-24.3-23.2-38.8-46.3-38.8-23.2 0-42.2 14.2-47.1 38.8zm-93.7 29.1c3.4 27.6 23.2 43.3 48.2 43.3 19.8 0 35.1-9.3 44.1-24.3h48.2c-11.2 39.6-46.7 65-93.4 65-56.4 0-96-39.6-96-96s41.8-97.1 97.1-97.1c55.6 0 96 41.1 96 97.1 0 4.1-.4 8.2-1.1 12z"/><path d="m972.6 193.8c0-30.3-22.8-53.4-50.8-53.4s-50.8 22.4-50.8 53.4c0 30.6 22.8 53.4 50.8 53.4s50.8-23.2 50.8-53.4m-147.9 169.6v-263h45.9v24.3c13.8-17.2 34.4-27.6 59-27.6 50.4 0 90 41.5 90 96.4s-40.3 96.7-91.1 96.7c-23.5 0-43-9.3-56.4-25v98.3h-47.4z"/><path d="m1185.2 193.8c0-31.4-22.8-53.4-50.8-53.4s-50.8 22.4-50.8 53.4c0 30.6 22.8 53.4 50.8 53.4s50.8-22 50.8-53.4m.4 93.4v-24.3c-13.8 16.8-34.4 27.3-59 27.3-51.2 0-90-41.1-90-96.4 0-54.9 40.3-96.7 91.1-96.7 23.9 0 44.1 10.5 57.9 26.9v-23.5h45.9v186.7z"/><path d="m741.9 118.7s11.7-21.7 40.3-21.7c12.2 0 20.2 4.2 20.2 4.2v47.6s-17.3-10.7-33.2-8.5-25.9 16.7-25.9 36.2v110.6h-47.3v-186.7h45.9z"/></svg>