<svg fill="none" height="280" viewBox="0 0 280 280" width="280" xmlns="http://www.w3.org/2000/svg"><path clip-rule="evenodd" d="m192.473 179.819 30.689 30.816c3.784 3.826 3.784 9.989.001 13.602-1.893 1.7-4.205 2.763-6.727 2.763-2.524 0-4.836-.851-6.727-2.763l-30.479-31.241c-13.453 10.839-30.27 16.578-47.296 16.578-20.599 0-39.9374-8.077-54.4417-22.742-14.5043-14.664-22.4923-34.217-22.4923-55.045s7.988-40.3806 22.4923-55.0455c14.5039-14.665 33.8427-22.7415 54.4417-22.7415 20.6 0 39.938 8.0765 54.443 22.7415 27.537 27.8415 30.059 72.0485 6.096 103.0775zm-60.473 13.181c33.689 0 61-27.311 61-61 0-33.6894-27.311-61-61-61-33.6894 0-61 27.3106-61 61 0 33.689 27.3106 61 61 61z" fill="#fff" fill-rule="evenodd"/></svg>