<svg fill="none" height="24" viewBox="0 0 20 24" width="20" xmlns="http://www.w3.org/2000/svg"><g stroke="#262525" stroke-linecap="round" stroke-linejoin="round" stroke-miterlimit="10"><path d="m17.5937 9.78046c-1.4489.86104-2.3524 2.35024-2.4111 3.97534-.0484 1.3328-1.5482 2.1574-2.7856 1.5304-1.5075-.7628-3.31577-.7628-4.82329 0-1.23736.627-2.73723-.1976-2.78565-1.5304-.05862-1.6239-.96338-3.1143-2.41101-3.97534-1.18893-.70702-1.18893-2.3539 0-3.06092 1.4489-.86103 2.35239-2.35026 2.41101-3.97531.04842-1.33278 1.54829-2.157437 2.78565-1.53046 1.50752.76281 3.31579.76281 4.82329 0 1.2374-.626977 2.7372.19768 2.7856 1.53046.0587 1.62384.9634 3.11428 2.4111 3.97531 1.1889.70702 1.1889 2.3539 0 3.06092z"/><path d="m18.8921 20.483h-17.89112"/><path d="m2.96649 22.6663-1.74218-1.6653c-.29908-.2859-.29908-.7487 0-1.0345l1.74218-1.6654"/><path d="m16.9258 22.6663 1.7422-1.6653c.299-.2859.299-.7487 0-1.0345l-1.7422-1.6654"/></g></svg>