<svg fill="none" height="216" viewBox="0 0 229 216" width="229" xmlns="http://www.w3.org/2000/svg"><path clip-rule="evenodd" d="m100.18 10.7802c4.544-13.70704 23.908-13.70686 28.451.0001l20.079 60.5736h64.597c14.641 0 20.546 18.7916 8.688 27.2372l-51.979 37.0179c0 .001-.001.002-.001.004-.002.005-.002.008-.002.009v.002c.001.001.001.003.002.005l19.922 60.102c4.542 13.703-11.047 25.408-22.913 16.957l-52.618-37.474-52.6183 37.474c-11.8665 8.451-27.4551-3.254-22.9129-16.957l19.9221-60.102c.0015-.005.0017-.007.0017-.007h.0001c0-.001-.0002-.004-.0018-.009-.0005-.002-.001-.003-.0014-.004l-51.97839-37.0179c-11.85879-8.4456-5.95321-27.2372 8.68749-27.2372h64.5975zm14.226 4.7581 20.066 60.5353c2.031 6.128 7.756 10.2803 14.225 10.2803h64.597c.002.0051.004.01.005.015-.002.0013-.004.0027-.006.0041l-51.978 37.018c-5.371 3.825-7.61 10.707-5.538 16.957l19.922 60.103-52.606-37.465c-5.201-3.704-12.174-3.704-17.375 0l-52.605 37.465 19.9221-60.103c2.0718-6.25-.1674-13.132-5.538-16.957l-51.9784-37.018c-.002-.0014-.0039-.0028-.0058-.0042.0013-.0049.0028-.0099.0044-.0149h64.5975c6.4689 0 12.1942-4.1523 14.2254-10.2803z" fill="#fff" fill-rule="evenodd"/></svg>