<svg fill="none" height="280" viewBox="0 0 280 280" width="280" xmlns="http://www.w3.org/2000/svg"><path d="m213.568 95.409h-27.247l.002-19.8186c0-15.9306-8.499-30.6513-22.293-38.6158-13.795-7.9661-30.791-7.9661-44.585 0-13.794 7.9645-22.2912 22.6852-22.2912 38.6158v19.8186h-29.7226c-1.9714 0-3.8616.7827-5.2542 2.1773-1.3943 1.3927-2.177 3.2827-2.177 5.2547v109c0 9.856 3.9151 19.307 10.8817 26.276 6.9681 6.969 16.4189 10.883 26.2721 10.883h86.6922c9.853 0 19.305-3.914 26.272-10.883s10.882-16.42 10.882-26.276v-109c0-1.971-.783-3.8619-2.177-5.2547-1.393-1.3945-3.283-2.1773-5.254-2.1773zm-101.553-19.8186h.001c0-10.6204 5.666-20.4335 14.861-25.7437 9.197-5.3102 20.527-5.3102 29.723 0s14.862 15.1237 14.862 25.7437v19.8186h-59.446zm94.123 136.2496c0 5.913-2.348 11.585-6.53 15.767-4.179 4.18-9.85 6.53-15.762 6.53h-86.6926c-5.9123 0-11.5832-2.35-15.7625-6.53-4.1812-4.182-6.5294-9.853-6.5294-15.767v-101.568h22.2915v27.249c0 2.656 1.4167 5.11 3.715 6.437 2.299 1.327 5.133 1.327 7.431 0 2.299-1.327 3.716-3.781 3.716-6.437v-27.249h59.446v27.249c0 2.656 1.417 5.11 3.715 6.437 2.3 1.327 5.133 1.327 7.431 0 2.3-1.327 3.717-3.781 3.717-6.437v-27.249h19.816z" fill="#fff"/></svg>