<svg fill="none" height="152" viewBox="0 0 180 152" width="180" xmlns="http://www.w3.org/2000/svg"><g fill="#fff"><path d="m0 53.0526c0-8.3714 6.78642-15.1579 15.1579-15.1579h111.7891c8.372 0 15.158 6.7865 15.158 15.1579v83.3684c0 8.372-6.786 15.158-15.158 15.158h-111.7891c-8.37148 0-15.1579-6.786-15.1579-15.158z"/><g clip-rule="evenodd" fill-rule="evenodd"><path d="m126.947 53.0526h-111.7891v83.3684h111.7891zm-111.7891-15.1579c-8.37148 0-15.1579 6.7865-15.1579 15.1579v83.3684c0 8.372 6.78642 15.158 15.1579 15.158h111.7891c8.372 0 15.158-6.786 15.158-15.158v-83.3684c0-8.3714-6.786-15.1579-15.158-15.1579z"/><path d="m164.842 15.1579h-111.7896v83.3684h111.7896zm-111.7896-15.1579c-8.3714 0-15.1579 6.78642-15.1579 15.1579v83.3684c0 8.3717 6.7865 15.1577 15.1579 15.1577h111.7896c8.371 0 15.158-6.786 15.158-15.1577v-83.3684c0-8.37148-6.787-15.1579-15.158-15.1579z"/></g></g></svg>