<svg fill="none" height="165" viewBox="0 0 165 165" width="165" xmlns="http://www.w3.org/2000/svg"><g clip-rule="evenodd" fill="#fff" fill-rule="evenodd"><path d="m2.1967 2.1967c2.92893-2.928933 7.67767-2.928933 10.6066 0l149.9997 150.0003c2.929 2.929 2.929 7.677 0 10.606s-7.677 2.929-10.606 0l-150.0003-149.9997c-2.928933-2.92893-2.928933-7.67767 0-10.6066z"/><path d="m162.803 2.1967c2.929 2.92893 2.929 7.67767 0 10.6066l-149.9997 149.9997c-2.92893 2.929-7.67767 2.929-10.60661 0-2.92892-2.929-2.92892-7.677 0-10.606l150.00031-150.0003c2.929-2.928933 7.677-2.928933 10.606 0z"/></g></svg>