<svg fill="none" height="200" viewBox="0 0 213 200" width="213" xmlns="http://www.w3.org/2000/svg"><path d="m99.2996 5.14001c2.2714-6.85337 11.9414-6.85334 14.2124.00003l20.079 60.57386c1.017 3.069 3.88 5.14 7.106 5.14h64.61c7.295 0 10.284 9.3927 4.337 13.6282l-51.979 37.0179c-2.683 1.912-3.807 5.356-2.769 8.489l19.922 60.102c2.283 6.887-5.542 12.691-11.443 8.488l-52.632-37.484c-2.597-1.849-6.077-1.849-8.674 0l-52.6321 37.484c-5.9015 4.203-13.7259-1.601-11.443-8.488l19.9221-60.103c1.0382-3.132-.0857-6.576-2.7696-8.488l-51.97848-37.0179c-5.94722-4.2355-2.95829-13.6282 4.33674-13.6282h64.61014c3.2258 0 6.089-2.071 7.1063-5.1401z" fill="#fff"/></svg>