<svg fill="none" height="150" viewBox="0 0 159 150" width="159" xmlns="http://www.w3.org/2000/svg"><g clip-rule="evenodd" fill="#fff" fill-rule="evenodd"><path d="m0 115.2c0-4.308 3.62649-7.8 8.09999-7.8h18.00001c4.4735 0 8.1 3.492 8.1 7.8 0 4.307-3.6265 7.8-8.1 7.8h-18.00001c-4.4735 0-8.09999-3.493-8.09999-7.8z"/><path d="m17.101.00012207c4.4735 0 8.1 3.59770793 8.1 8.03570793v133.92817c0 4.438-3.6265 8.036-8.1 8.036s-8.10002-3.598-8.10002-8.036v-133.92817c0-4.438 3.62652-8.03570793 8.10002-8.03570793z"/><path d="m62.4014 34.8001c0-4.3078 3.6265-7.8 8.1-7.8h17.9999c4.4735 0 8.1 3.4922 8.1 7.8s-3.6265 7.8-8.1 7.8h-17.9999c-4.4735 0-8.1-3.4922-8.1-7.8z"/><path d="m79.5023 0c4.4735 0 8.1 3.59771 8.1 8.03571v133.92829c0 4.438-3.6265 8.036-8.1 8.036s-8.1-3.598-8.1-8.036v-133.92829c0-4.438 3.6265-8.03571 8.1-8.03571z"/><path d="m124.801 75.0006c0-4.3079 3.626-7.8 8.1-7.8h18c4.473 0 8.1 3.4921 8.1 7.8 0 4.3078-3.627 7.7999-8.1 7.7999h-18c-4.474 0-8.1-3.4921-8.1-7.7999z"/><path d="m141.902 0c4.473 0 8.1 3.59771 8.1 8.03571v133.92829c0 4.438-3.627 8.036-8.1 8.036-4.474 0-8.1-3.598-8.1-8.036v-133.92829c0-4.438 3.626-8.03571 8.1-8.03571z"/></g></svg>