<svg fill="none" height="280" viewBox="0 0 280 280" width="280" xmlns="http://www.w3.org/2000/svg"><g fill="#fff"><path d="m212.056 237c4.391 0 7.944-3.543 7.944-7.908 0-43.728-35.589-79.182-79.5-79.182s-79.5 35.453-79.5 79.182c0 4.365 3.5533 7.908 7.9436 7.908 4.3937 0 7.9469-3.543 7.9469-7.908 0-35 28.4815-63.363 63.6095-63.363s63.61 28.363 63.61 63.363c0 4.365 3.553 7.908 7.946 7.908z"/><path clip-rule="evenodd" d="m92.304 90.9986c0 26.5084 21.576 48.0014 48.196 48.0014s48.196-21.494 48.196-48.0014c0-26.5053-21.576-47.9986-48.196-47.9986s-48.196 21.4933-48.196 47.9986zm80.501.0008c0 17.7796-14.468 32.1846-32.305 32.1846s-32.305-14.405-32.305-32.1846c0-17.776 14.468-32.1812 32.305-32.1812s32.305 14.4052 32.305 32.1812z" fill-rule="evenodd"/></g></svg>