<svg fill="none" height="35" viewBox="0 0 36 35" width="36" xmlns="http://www.w3.org/2000/svg"><g fill="#262525"><path d="m11.4138 25.2224c-.277 0-.5554-.1131-.7718-.3281-.3446-.3445-.4273-.849-.2054-1.2555l1.5368-2.8075c.7745-1.4155 1.7393-2.7042 2.8681-3.8329l4.0617-4.0618 2.3044-2.6283c.2578-.2853.6092-.44377.9965-.45342.4287-.01102.8642.16682 1.1839.48652l1.8069 1.8069c.3212.3211.4976.7525.4866 1.1839-.0097.3873-.1682.7401-.4466.991l-2.6352 2.3113-4.0617 4.0617c-1.1274 1.1274-2.4175 2.0922-3.8329 2.8681l-2.8075 1.5368c-.1516.0813-.3184.1213-.4838.1213zm10.8275-14.0444c-.0013 0-.0027 0-.0041 0-.0165 0-.0358.0041-.0427.011l-2.3127 2.638c-.0097.011-.0193.0207-.029.0317l-4.0768 4.0769c-1.0392 1.0392-1.9282 2.2272-2.6421 3.5324l-1.1316 2.0674 2.0674-1.1316c1.3052-.7139 2.4932-1.6029 3.5324-2.6421l4.0769-4.0768c.0097-.0097.0207-.0207.0317-.029l2.6449-2.3196s.0027-.0193.0041-.0358c.0014-.0537-.0248-.1392-.1006-.215l-1.8069-1.8069c-.0744-.0744-.1571-.1006-.2109-.1006z"/><path d="m22.1462 16.8123c-.1696 0-.3391-.0648-.4673-.1943l-2.762-2.762c-.2577-.2578-.2577-.6768 0-.9359.2591-.2591.6768-.2591.9359 0l2.762 2.762c.2577.2578.2577.6768 0 .9359-.1296.1309-.2991.1943-.4686.1943z"/><path d="m23.778 12.3289c-.1696 0-.3391-.0648-.4673-.1944-.2577-.2577-.2577-.6767 0-.9358l2.3155-2.31546c.2591-.25911.6767-.25911.9358 0 .2578.25773.2578.67672 0 .93583l-2.3154 2.31543c-.131.1296-.3005.1944-.4686.1944z"/><path d="m18.0172 31c-.1696 0-.3391-.0648-.4673-.1943l-2.3444-2.3445c-.594-.594-.594-1.5601 0-2.1542l2.3444-2.3444c.2591-.2591.6768-.2591.9359 0 .2577.2578.2577.6768 0 .9359l-2.3444 2.3444c-.0786.0785-.0786.2053 0 .2825l2.3444 2.3444c.2577.2578.2577.6767 0 .9359-.1296.1309-.2991.1943-.4686.1943z"/><path d="m17.9966 28.2049c-.878 0-1.7573-.1061-2.6187-.3239-.3542-.0896-.5692-.4493-.4796-.8035.0895-.3542.4493-.5692.8035-.4796.7566.1915 1.5285.2839 2.2975.2839 2.5829 0 5.1492-1.0461 7.0594-2.9564 2.8337-2.8336 3.662-7.0511 2.1129-10.7462-.142-.3363.0165-.7249.3542-.8655.3363-.1406.7249.0165.8655.3542 1.7587 4.1926.8173 8.9779-2.3968 12.1934-2.161 2.1611-5.0692 3.3436-7.9979 3.3436z"/><path d="m18.2487 10.2312c-.1696 0-.3391-.0648-.4673-.1944-.2577-.25771-.2577-.67669 0-.9358l2.3444-2.34441c.0786-.07856.0786-.20536 0-.28254l-2.3444-2.3444c-.2577-.25773-.2577-.67672 0-.93583.2591-.25774.6768-.25911.9359 0l2.3444 2.3444c.594.59403.594 1.56018 0 2.1542l-2.3444 2.34438c-.1296.1296-.2991.1944-.4686.1944z"/><path d="m8.48505 21.7396c-.25911 0-.50444-.153-.61056-.4052-1.75865-4.1927-.81731-8.978 2.39681-12.19342 2.8088-2.80749 6.8774-3.96522 10.618-3.01974.3542.08959.5692.44931.4796.80352-.0895.35421-.4493.56922-.8035.47963-3.2912-.83109-6.8775.19295-9.3569 2.67241-2.83371 2.8337-3.66204 7.0511-2.11288 10.7462.14196.3363-.01654.725-.35421.8656-.08408.0344-.17091.051-.25636.051z"/></g></svg>